<mxfile host="app.diagrams.net" agent="Mozilla/5.0 (Windows NT 10.0; Win64; x64) AppleWebKit/537.36 (KHTML, like Gecko) Chrome/136.0.0.0 Safari/537.36 Edg/136.0.0.0" version="27.0.6">
  <diagram name="第 1 页" id="s0ZuTIdpN0D4-DDphK1k">
    <mxGraphModel dx="1060" dy="572" grid="1" gridSize="10" guides="1" tooltips="1" connect="1" arrows="1" fold="1" page="1" pageScale="1" pageWidth="827" pageHeight="1169" math="0" shadow="0">
      <root>
        <mxCell id="0" />
        <mxCell id="1" parent="0" />
        <mxCell id="oWTD0FEcT8lbK7-aN0bz-3" value="" style="edgeStyle=orthogonalEdgeStyle;rounded=0;orthogonalLoop=1;jettySize=auto;html=1;" edge="1" parent="1" source="oWTD0FEcT8lbK7-aN0bz-1" target="oWTD0FEcT8lbK7-aN0bz-2">
          <mxGeometry relative="1" as="geometry" />
        </mxCell>
        <mxCell id="oWTD0FEcT8lbK7-aN0bz-1" value="抓取模拟砖" style="whiteSpace=wrap;strokeWidth=2;strokeColor=light-dark(#9370db, #ededed);align=center;verticalAlign=middle;fontFamily=Helvetica;fontSize=15;fontColor=default;fillColor=light-dark(#ececff, #392f3f);" vertex="1" parent="1">
          <mxGeometry x="80" y="340" width="96" height="54" as="geometry" />
        </mxCell>
        <mxCell id="oWTD0FEcT8lbK7-aN0bz-5" value="" style="edgeStyle=orthogonalEdgeStyle;rounded=0;orthogonalLoop=1;jettySize=auto;html=1;" edge="1" parent="1" source="oWTD0FEcT8lbK7-aN0bz-2" target="oWTD0FEcT8lbK7-aN0bz-4">
          <mxGeometry relative="1" as="geometry" />
        </mxCell>
        <mxCell id="oWTD0FEcT8lbK7-aN0bz-2" value="简单姿态变化" style="whiteSpace=wrap;strokeWidth=2;strokeColor=light-dark(#9370db, #ededed);align=center;verticalAlign=middle;fontFamily=Helvetica;fontSize=15;fontColor=default;fillColor=light-dark(#ececff, #392f3f);" vertex="1" parent="1">
          <mxGeometry x="220" y="340" width="102" height="54" as="geometry" />
        </mxCell>
        <mxCell id="oWTD0FEcT8lbK7-aN0bz-4" value="拼装" style="whiteSpace=wrap;strokeWidth=2;strokeColor=light-dark(#9370db, #ededed);align=center;verticalAlign=middle;fontFamily=Helvetica;fontSize=15;fontColor=default;fillColor=light-dark(#ececff, #392f3f);" vertex="1" parent="1">
          <mxGeometry x="363" y="340" width="102" height="54" as="geometry" />
        </mxCell>
      </root>
    </mxGraphModel>
  </diagram>
</mxfile>
